<svg xmlns="http://www.w3.org/2000/svg" viewBox="0 0 401.44 62.4"><defs><style>.cls-1{fill:#6d6e71;}.cls-2{fill:#b80b4d;}</style></defs><g id="Layer_2" data-name="Layer 2"><g id="Layer_1-2" data-name="Layer 1"><path class="cls-1" d="M279.88,60.21a10.93,10.93,0,0,1-11.13-10.73,12.24,12.24,0,0,1,.83-4.52A9.94,9.94,0,0,1,271,42.58a11.13,11.13,0,1,1,8.93,17.63ZM279.93,43a5.88,5.88,0,0,0-5.78,6.18c0,3.38,2.32,6.3,5.84,6.3s5.69-3,5.69-6.21S283.4,43,279.93,43Z"/><path class="cls-1" d="M303.32,59.81V51.14c0-1.78-.34-3.29-2.49-3.29s-2.72,1.43-2.72,3.32v8.64h-4.75V43.93h4.44v1.69h.06a4.57,4.57,0,0,1,4.32-2.23,6.84,6.84,0,0,1,4.06,1.37c1.52,1.26,1.83,3.26,1.83,5.12v9.93Z"/><path class="cls-1" d="M311,59.81V38.63h4.75V59.81Z"/><path class="cls-1" d="M318.72,42.24V38.63h4.75v3.61Zm0,17.57V43.93h4.75V59.81Z"/><path class="cls-1" d="M336.41,59.81V51.14c0-1.78-.34-3.29-2.49-3.29s-2.72,1.43-2.72,3.32v8.64h-4.75V43.93h4.44v1.69H331a4.57,4.57,0,0,1,4.32-2.23,6.84,6.84,0,0,1,4.06,1.37c1.52,1.26,1.83,3.26,1.83,5.12v9.93Z"/><path class="cls-1" d="M359.82,53.31H347.91a3.56,3.56,0,0,0,3.72,3,3.41,3.41,0,0,0,2.89-1.49h4.87a8.38,8.38,0,1,1-7.85-11.44,8.39,8.39,0,0,1,8.39,8.67A6.71,6.71,0,0,1,359.82,53.31Zm-8.24-5.92A3.53,3.53,0,0,0,348,50.11h7.21A3.52,3.52,0,0,0,351.58,47.39Z"/><path class="cls-2" d="M321.37,31.78h-6.61V21.65H306.2V31.78h-6.61V6.17h6.61v9.62h8.56V6.17h6.61Z"/><path class="cls-2" d="M343.34,12H333.18v3.83h8.7v5.72h-8.7v4.35h10.2v5.85H326.57V6.17h16.78V12Z"/><path class="cls-2" d="M377.65,6.17H388.5a12.9,12.9,0,0,1,9.31,3.46c2.43,2.29,3.63,5.41,3.63,9.35s-1.2,7.05-3.63,9.35a13,13,0,0,1-9.31,3.46H377.65Zm6.6,5.69V26.1h4.31c4,0,6.33-2.36,6.33-7.12s-2.33-7.12-6.33-7.12Z"/><path class="cls-2" d="M282.76,7h0l-.42-.81a.15.15,0,0,0-.27,0l-.42.81h0l-13,25h7.6l6-12.12,6,12.12h7.6Z"/><path class="cls-2" d="M360.74.9h0l-.42-.82a.15.15,0,0,0-.27,0l-.42.82h0l-13,25h7.6l6-12.12,6,12.12h7.6Z"/><path class="cls-2" d="M52.91,57l3.33-7.31c.34-.73.67-1.5,1.91-1.5a16.09,16.09,0,0,0-.82,1.5l-5,10.9-5-10.9a13.82,13.82,0,0,0-.82-1.5c2.27,0,2.63.77,3,1.5Z"/><path class="cls-2" d="M61.89,59.81h-2V50c0-.82,0-1.79,2.12-1.79A13.25,13.25,0,0,0,61.89,50Z"/><path class="cls-2" d="M68.4,49.19c-1.57,0-2.32.83-2.32,1.75A1.17,1.17,0,0,0,66.75,52l4.08,2a2.91,2.91,0,0,1,1.79,2.59c0,1.63-1.52,3.28-4.24,3.28-1.31,0-2.45-.07-4-.08l.86-1.22a14.49,14.49,0,0,0,3.08.38c1.81,0,2.66-.91,2.66-1.76A1.28,1.28,0,0,0,70.24,56l-4-2a2.92,2.92,0,0,1-1.66-2.64c0-1.55,1.22-3.1,3.82-3.1,1.16,0,2.33.07,3.67.08a1.07,1.07,0,0,1-1.19,1.09A13.93,13.93,0,0,0,68.4,49.19Z"/><path class="cls-2" d="M76.63,53.61h5.3V50c0-.82,0-1.79,2.12-1.79A13.25,13.25,0,0,0,83.89,50v8.17A12.82,12.82,0,0,0,84.05,60c-2.12,0-2.12-1-2.12-1.79V54.59h-5.3v3.59c0,.82,0,1.79-2.12,1.79a12.82,12.82,0,0,0,.16-1.78V50a13.05,13.05,0,0,0-.16-1.79c2.12,0,2.12,1,2.12,1.79Z"/><path class="cls-2" d="M94.44,47.58l4.37,9.14,2.43-6.92c.26-.77.59-1.57,1.73-1.57a16,16,0,0,0-.67,1.57L98.52,60.63,94,51l-4.32,9.61L85.87,49.8c-.28-.78-.67-1.57-.67-1.57,2.17,0,2.43.8,2.71,1.57l2.43,6.93Z"/><path class="cls-2" d="M109.37,55.57h-4L104,58.47c-.34.73-.67,1.5-1.91,1.5a16.09,16.09,0,0,0,.82-1.5l5-10.9,5,10.9a13.82,13.82,0,0,0,.82,1.5c-2.27,0-2.63-.77-3-1.5Zm-3.58-1h3.13l-1.57-3.43Z"/><path class="cls-2" d="M125.7,57,129,49.73c.34-.73.67-1.5,1.91-1.5a16.09,16.09,0,0,0-.82,1.5l-5,10.9-5-10.9a13.82,13.82,0,0,0-.82-1.5c2.27,0,2.63.77,3,1.5Z"/><path class="cls-2" d="M134.69,59.81h-2V50c0-.82,0-1.79,2.12-1.79a13.25,13.25,0,0,0-.16,1.79Z"/><path class="cls-2" d="M141.67,48.31a5.79,5.79,0,0,1,0,11.58c-1.53,0-2.79-.08-4-.08a10.8,10.8,0,0,0,.16-1.63V50a9.62,9.62,0,0,0-.16-1.63C139,48.38,140.31,48.31,141.67,48.31Zm-1.93.93V59c.7,0,1.32,0,1.94,0,2.51,0,3.59-2.12,3.59-4.91s-1.27-4.91-3.59-4.91C141,49.19,140.36,49.24,139.74,49.24Z"/><path class="cls-2" d="M154.33,53.32a3.55,3.55,0,0,0-.44,1.84v4.65h-2V55.16a2.67,2.67,0,0,0-.44-1.58l-2.66-3.52a21.53,21.53,0,0,0-1.7-1.83c2.69,0,3.23.72,3.77,1.44l2.45,3.23,2.46-3.3a2.78,2.78,0,0,1,2.63-1.37A15.82,15.82,0,0,0,157,49.8Z"/><path class="cls-2" d="M164.87,55.57h-4l-1.32,2.9c-.34.73-.67,1.5-1.91,1.5a16.09,16.09,0,0,0,.82-1.5l5-10.9,5,10.9a13.82,13.82,0,0,0,.82,1.5c-2.27,0-2.63-.77-3-1.5Zm-3.58-1h3.13l-1.57-3.43Z"/><path class="cls-2" d="M178.41,51.48c0,1.94-1.76,3.23-3.85,3.23-.7,0-1.42-.05-2.12-.05v3.52c0,.82,0,1.79-2.12,1.79a13.25,13.25,0,0,0,.16-1.79V50a9.62,9.62,0,0,0-.16-1.63h2.37c.36,0,.64,0,.93,0l.95,0C176.64,48.36,178.41,49.52,178.41,51.48Zm-6-2.27v4.68c.64,0,1.34,0,1.79,0a2.22,2.22,0,0,0,2.19-2.46,2.11,2.11,0,0,0-2.19-2.3C173.64,49.18,173.06,49.21,172.44,49.21Z"/><path class="cls-2" d="M182.24,58.84h4.41a1,1,0,0,1,1.14,1h-7.67a9.39,9.39,0,0,0,.16-1.61V50a9.62,9.62,0,0,0-.16-1.63h7.67a1,1,0,0,1-1.14,1h-4.41v4.24h4.08v1h-4.08Z"/><path class="cls-2" d="M191.86,58.84h4.4a1,1,0,0,1,1.14,1h-7.67a9.39,9.39,0,0,0,.16-1.61V50a9.62,9.62,0,0,0-.16-1.63h7.67a1,1,0,0,1-1.14,1h-4.4v4.24h4.08v1h-4.08Z"/><path class="cls-2" d="M198.23,48.39h10.93c0,.07,0,1-.82,1-1,0-1.57-.06-2.76-.06h-.83V59.81h-2.12V49.34h-.83c-1.19,0-1.73,0-2.76.06C198.24,49.41,198.23,48.46,198.23,48.39Z"/><path class="cls-2" d="M212.42,53.61h5.3V50c0-.82,0-1.79,2.12-1.79a13.25,13.25,0,0,0-.16,1.79v8.17a12.82,12.82,0,0,0,.16,1.78c-2.12,0-2.12-1-2.12-1.79V54.59h-5.3v3.59c0,.82,0,1.79-2.12,1.79a12.82,12.82,0,0,0,.16-1.78V50a13.05,13.05,0,0,0-.16-1.79c2.12,0,2.12,1,2.12,1.79Z"/><path class="cls-2" d="M228.23,55.57h-4l-1.32,2.9c-.34.73-.67,1.5-1.91,1.5a16.09,16.09,0,0,0,.82-1.5l5-10.9,5,10.9a13.82,13.82,0,0,0,.82,1.5c-2.27,0-2.63-.77-3-1.5Zm-3.57-1h3.13l-1.57-3.43Z"/><path class="cls-2" d="M241.39,60.63,237,51.49l-2.43,6.92c-.26.77-.59,1.57-1.73,1.57a16,16,0,0,0,.67-1.57l3.78-10.83,4.55,9.61,4.32-9.61L250,58.41c.28.78.67,1.57.67,1.57-2.17,0-2.43-.8-2.71-1.57l-2.43-6.93Z"/><path class="cls-2" d="M64.18,6.09,49.4,38.57c-.68,1.49-2,3.72-2.8,5H47a5.54,5.54,0,0,0,5.34-3c.3-.52.56-1.07.8-1.6l.08-.17,3.66-8H68.34L72,38.81c1,2.25,2.24,4.81,9.37,4.81h.38A51.31,51.31,0,0,1,79,38.57ZM58.11,28l4.46-9.79L67.05,28Z"/><path class="cls-2" d="M124.32,6.09,111.44,34.73,97.88,6.09,86.6,38.37c-.83,2.33-2.28,5.25-2.28,5.25h.28c4,0,5-3,5.7-5.06l6.78-19.29,13,27.09,12.17-27.09L129,38.65c.84,2.33,1.79,5,8.59,5h.27s-1.44-2.91-2.27-5.25Z"/><path class="cls-2" d="M174.92,13V43.52h7V13a37.41,37.41,0,0,1,.48-5.25l.11-.68h-.69C174.92,7,174.92,10.47,174.92,13Z"/><path class="cls-2" d="M217.71,10.64c2.38,0,3-2.26,3-3.6H187c0,1.34.63,3.6,3,3.59,1.26,0,2.28-.06,3.27-.09,1.46,0,2.85-.1,4.93-.1h1.9v33h7.48v-33h1.9c2.09,0,3.47.05,4.93.1C215.42,10.59,216.44,10.62,217.71,10.64Z"/><path class="cls-2" d="M166.41,39.69l-9.29-12.43c5.64-1,10.14-5.07,9.81-11.08-.31-5.68-5.44-9.13-11.66-9.13-4.62,0-8.9.19-13.13.19a28.19,28.19,0,0,1,.49,4.86l-.19,26.18a38.51,38.51,0,0,1-.49,5.35c6.32,0,6.32-2.92,6.32-5.35l.19-28.47c2.58,0,4.18-.1,5.83-.1a7,7,0,0,1,7,6.55c.46,4.32-1,7.54-4.19,9-2.31.94-7.32.8-7.32.8L160,39.81c1.46,1.94,3.44,3.8,9.81,3.8A33.7,33.7,0,0,1,166.41,39.69Z"/><path class="cls-2" d="M247.79,38.57,233,6.09,218.23,38.57c-.68,1.49-2,3.72-2.8,5h.37a5.54,5.54,0,0,0,5.34-3c.3-.52.56-1.07.8-1.6l.08-.17,3.66-8h11.49l3.68,8.05c1.05,2.25,2.24,4.81,9.37,4.81h.38A51.31,51.31,0,0,1,247.79,38.57ZM227,28l4.46-9.79L235.89,28Z"/><path class="cls-2" d="M26.88,33.5l-.69.23a1.77,1.77,0,0,0,.92.22h.07l.17,0h9.77c.11-.27.21-.55.3-.82h-9.7A4,4,0,0,1,26.88,33.5Z"/><path class="cls-2" d="M16,34h.08a1.83,1.83,0,0,0,.92-.22l-.69-.23a5.44,5.44,0,0,1-.84-.35H5.72c.09.28.19.55.3.82h9.83Z"/><path class="cls-2" d="M27.41,34.7a4.15,4.15,0,0,1-1.93.49h0a.41.41,0,0,1-.19,0,4,4,0,0,1-1.28.36H36.43c.14-.27.27-.54.4-.82H27.41Z"/><path class="cls-2" d="M17.94,35.15a.58.58,0,0,1-.19,0h0a4.2,4.2,0,0,1-1.92-.48l0,0H6.32c.12.28.26.55.4.82H19.23A3.79,3.79,0,0,1,17.94,35.15Z"/><path class="cls-2" d="M3,27.89a1.63,1.63,0,0,0-1,.71c-.84,1.28-.22,3.87.27,5.95.18.75.34,1.45.41,2,0,.09,0,.19,0,.28a5,5,0,0,1,0,1.83l0,.14.14,0a5.08,5.08,0,0,1,1.56,1l.23.18c.42.32.94.82,1.5,1.34,1.52,1.44,3.41,3.21,4.91,3.21h.1A1.64,1.64,0,0,0,12.28,44a1.66,1.66,0,0,0,.11,1.22c.69,1.36,3.24,2.13,5.29,2.74.73.22,1.43.43,1.91.63l.27.11a4.87,4.87,0,0,1,1.61.87l.1.11.1-.11a4.87,4.87,0,0,1,1.61-.87l.27-.11c.49-.2,1.18-.41,1.91-.63,2.05-.61,4.6-1.38,5.29-2.74A1.69,1.69,0,0,0,30.86,44a1.62,1.62,0,0,0,1.11.51h.1c1.51,0,3.39-1.78,4.91-3.21.56-.53,1.08-1,1.5-1.34l.23-.18a5.08,5.08,0,0,1,1.56-1l.15,0,0-.14a5,5,0,0,1,0-1.83c0-.1,0-.19,0-.29.07-.52.24-1.23.41-2,.49-2.08,1.11-4.67.27-6a1.67,1.67,0,0,0-1-.71,1.63,1.63,0,0,0,1-.71c.84-1.28.22-3.87-.27-5.95-.18-.75-.34-1.45-.41-2,0-.09,0-.19,0-.29a5,5,0,0,1,0-1.83l0-.14-.15,0a5.08,5.08,0,0,1-1.56-1l-.23-.18c-.42-.32-.94-.82-1.5-1.34-1.52-1.44-3.41-3.21-4.91-3.21H32a1.64,1.64,0,0,0-1.12.52,1.66,1.66,0,0,0-.11-1.22C30,9.19,27.48,8.42,25.43,7.81c-.73-.22-1.43-.43-1.91-.63l-.27-.11a4.87,4.87,0,0,1-1.61-.87l-.1-.11-.1.11a4.87,4.87,0,0,1-1.61.87l-.27.11c-.49.2-1.18.41-1.91.63-2,.61-4.6,1.38-5.29,2.74a1.69,1.69,0,0,0-.11,1.23,1.62,1.62,0,0,0-1.11-.51c-1.52-.09-3.46,1.74-5,3.21-.56.53-1.08,1-1.5,1.34L4.39,16a5.08,5.08,0,0,1-1.56,1l-.15,0,0,.14A5,5,0,0,1,2.67,19c0,.1,0,.19,0,.28-.07.52-.24,1.23-.41,2-.49,2.08-1.11,4.67-.27,5.95A1.76,1.76,0,0,0,3,27.89ZM21.57,9.58A18.3,18.3,0,1,1,3.35,27.88,18.28,18.28,0,0,1,21.57,9.58Z"/><path class="cls-2" d="M14.93,43.21H28.21a16.72,16.72,0,0,0,1.64-.82H13.29C13.82,42.69,14.37,43,14.93,43.21Z"/><path class="cls-2" d="M21.57,44.58a16.66,16.66,0,0,0,4.66-.66H16.92A16.64,16.64,0,0,0,21.57,44.58Z"/><path class="cls-2" d="M25.62,27.89a1.54,1.54,0,0,0-.87-.2,2.2,2.2,0,0,0-.53.06,1.55,1.55,0,0,0-1.13,1.13,8.93,8.93,0,0,0,.66.72,2.52,2.52,0,0,1,1,1.62,2.15,2.15,0,0,1-.14.87,2.09,2.09,0,0,1-1.24,1.12,4.49,4.49,0,0,0,3-.94,1.79,1.79,0,0,0,.48-1.42,2.56,2.56,0,0,0-.6-1.18c-.4-.54-.82-1.1-.57-1.75Z"/><path class="cls-2" d="M27.54,28.26a2.74,2.74,0,0,0-.87.13,1.31,1.31,0,0,0-.69.42,4,4,0,0,0,.45.68,2.7,2.7,0,0,1,.66,1.33,2.06,2.06,0,0,1-.56,1.64,4,4,0,0,1-2.45,1h.24a5.88,5.88,0,0,0,3.8-1.06,1.84,1.84,0,0,0,.69-1.53,1.88,1.88,0,0,0-.46-1c-.29-.41-.63-.88-.25-1.51A2,2,0,0,0,27.54,28.26Z"/><path class="cls-2" d="M24.33,32a1.77,1.77,0,0,0,.12-.75,2.32,2.32,0,0,0-.9-1.43,6,6,0,0,1-1.25-1.63l0-.11c-.2-.49-.34-.79-.65-.79s-.47.33-.67.82a8.51,8.51,0,0,1-1.33,1.77,2.16,2.16,0,0,0-.84,1.38,1.91,1.91,0,0,0,.12.75c.33.86,1.59,1.25,2.68,1.25h.08C22.74,33.23,24,32.85,24.33,32Z"/><path class="cls-2" d="M16.4,30.84a1.75,1.75,0,0,0,.48,1.42,4.44,4.44,0,0,0,3,.94,2.09,2.09,0,0,1-1.24-1.12,2,2,0,0,1-.14-.87,2.48,2.48,0,0,1,1-1.62,6.4,6.4,0,0,0,.66-.72A1.57,1.57,0,0,0,19,27.74a2.33,2.33,0,0,0-.53-.06,1.56,1.56,0,0,0-.87.2,0,0,0,0,0,0,0c.24.65-.17,1.21-.57,1.75A2.57,2.57,0,0,0,16.4,30.84Z"/><path class="cls-2" d="M14.39,30.84a1.84,1.84,0,0,0,.69,1.53,5.82,5.82,0,0,0,3.8,1.06h.24a4,4,0,0,1-2.45-1,2.09,2.09,0,0,1-.56-1.64,2.62,2.62,0,0,1,.66-1.33,5.71,5.71,0,0,0,.45-.68,1.31,1.31,0,0,0-.69-.42,2.74,2.74,0,0,0-.87-.13,1.75,1.75,0,0,0-.57.07,1.26,1.26,0,0,1-.25,1.51A1.88,1.88,0,0,0,14.39,30.84Z"/><path class="cls-2" d="M18.27,34.14l.16-.11a1,1,0,0,0,.23-.21.94.94,0,0,1,.1-.1,7.46,7.46,0,0,1-1-.06h0a.09.09,0,0,0-.06,0l-.12.1a2.19,2.19,0,0,1-1.55.59h0a3.9,3.9,0,0,0,1.68.39h0c.07,0,.08,0,.08-.05a.48.48,0,0,1,0-.12C17.86,34.4,18.05,34.28,18.27,34.14Z"/><path class="cls-2" d="M19.34,35.13a1.51,1.51,0,0,0,.46-.06A.37.37,0,0,0,20,35a.76.76,0,0,1-.08-.11A1,1,0,0,1,20,33.67h0l-.32,0c-.53.07-.63.18-.76.32a1.44,1.44,0,0,1-.28.25l-.16.1c-.17.11-.32.21-.34.29a.11.11,0,0,0,0,.1A1.62,1.62,0,0,0,19.34,35.13Z"/><path class="cls-2" d="M21.6,33.54h0a2,2,0,0,0-1.44.34.66.66,0,0,0,0,.83,1.34,1.34,0,0,0,.11.14l0,0a1.5,1.5,0,0,0,.4.2,1.39,1.39,0,0,1,.93.81,1.39,1.39,0,0,1,.93-.81,1.25,1.25,0,0,0,.4-.2l0,0a.53.53,0,0,0,.11-.14.66.66,0,0,0,0-.83c-.21-.23-.67-.34-1.43-.34Z"/><path class="cls-2" d="M23.23,35a.37.37,0,0,0,.18.11,1.51,1.51,0,0,0,.46.06,1.73,1.73,0,0,0,1.21-.37.11.11,0,0,0,0-.1c0-.08-.18-.18-.34-.29l-.16-.1a1.86,1.86,0,0,1-.28-.25c-.13-.14-.23-.25-.76-.32l-.32,0h0a1,1,0,0,1,0,1.18A.38.38,0,0,0,23.23,35Z"/><path class="cls-2" d="M25.47,34.77h0a4.05,4.05,0,0,0,1.68-.39h0a2.13,2.13,0,0,1-1.55-.59l-.12-.1-.06,0h0c-.31,0-.63.05-.95.06l.1.1a1.2,1.2,0,0,0,.23.21l.16.11c.22.14.41.26.45.46a.24.24,0,0,1,0,.12S25.4,34.77,25.47,34.77Z"/><path class="cls-2" d="M18.07,40.14c.08,0,1.25.37,1.46.4a1.3,1.3,0,0,0,1.07-.22l.06-.06a.72.72,0,0,0,.13-.19c.15-.39-.22-.87-1.39-1.15a11.3,11.3,0,0,0-5.17,0c-.87.26-1.23.62-1.22,1a.6.6,0,0,0,.08.29h0a1.5,1.5,0,0,0,.51.49,2.36,2.36,0,0,0,.39.19h0a5.53,5.53,0,0,0,.86.25,11.38,11.38,0,0,0,2.8.19c1.3-.07,1.2-.47.92-.64-.06,0-.39-.21-.62-.38S17.9,40.06,18.07,40.14Z"/><path class="cls-2" d="M19.05,40.77a.24.24,0,0,1,0,.08.41.41,0,0,1,0,.22c-.1.42-.68.55-1.18.6H31c.38-.26.75-.53,1.1-.82H19.37Z"/><path class="cls-2" d="M14.78,41.49a5.73,5.73,0,0,1-.9-.26h0a2.5,2.5,0,0,1-.66-.38H11c.36.29.72.56,1.1.82h3.93A10.06,10.06,0,0,1,14.78,41.49Z"/><path class="cls-2" d="M24.27,37a.53.53,0,0,1,.28-.66,1.75,1.75,0,0,1,.33-.13H7.1c.16.28.33.55.51.82H24.28A0,0,0,0,0,24.27,37Z"/><path class="cls-2" d="M30.52,36.49a6.32,6.32,0,0,1,1.53.56h3.49c.18-.27.35-.54.51-.82H29.16C29.64,36.3,30.11,36.39,30.52,36.49Z"/><path class="cls-2" d="M32.65,37.9a.88.88,0,0,1-.28.5l-.06.05a1.33,1.33,0,0,1-.19.14h2.26c.22-.27.44-.54.65-.82H32.64A.53.53,0,0,1,32.65,37.9Z"/><path class="cls-2" d="M14.35,38.59a10.52,10.52,0,0,1,2.51-.28,11.63,11.63,0,0,1,2.62.28h3.19a.69.69,0,0,1,0-.44.79.79,0,0,1,.21-.38H8.12c.21.28.42.56.65.82Z"/><path class="cls-2" d="M12.68,40a1,1,0,0,1,.25-.65H9.4c.27.28.54.56.83.82H12.7A.88.88,0,0,1,12.68,40Z"/><path class="cls-2" d="M29.45,39.56l-.11,0a15.6,15.6,0,0,1-3,.31,6.25,6.25,0,0,1-3-.58H20.92a1.37,1.37,0,0,1,.15.21.82.82,0,0,1,.06.61H32.92c.29-.26.56-.54.83-.82H30.46C30.15,39.4,29.81,39.48,29.45,39.56Z"/><path class="cls-2" d="M26,37.82a3.57,3.57,0,0,1-.6-.07,6.14,6.14,0,0,0-.79-.09h-.21a3.77,3.77,0,0,0-.89.1c-.34.08-.87.52-.26,1a4.69,4.69,0,0,0,3.13.78,14.87,14.87,0,0,0,2.93-.3l.11,0a6.78,6.78,0,0,0,2.71-1l0,0a.54.54,0,0,0,.18-.3c0-.17-.12-.6-1.88-1a16.51,16.51,0,0,0-3.69-.44h-.07a4.68,4.68,0,0,0-2,.27.32.32,0,0,0-.12.1.23.23,0,0,0,0,.17c.17.42.87.52,1.51.52.36,0,.34.17.28.25A.61.61,0,0,1,26,37.82Z"/><path class="cls-2" d="M35.56,32.58l-4.15-.36c0,.11,0,.22,0,.33l4.15.36C35.53,32.8,35.55,32.69,35.56,32.58Z"/><path class="cls-2" d="M35.42,28.92l-4.11.73c0,.11,0,.22.05.33l4.11-.73C35.46,29.14,35.44,29,35.42,28.92Z"/><path class="cls-2" d="M30.56,27.2c.05.1.09.2.13.3l3.79-1.77c0-.1-.09-.2-.14-.3Z"/><path class="cls-2" d="M32.6,22.58l-.21-.26L29.18,25a2.56,2.56,0,0,1,.2.26Z"/><path class="cls-2" d="M30.1,20.12l-.26-.2L27.4,23.33l.26.2Z"/><path class="cls-2" d="M25.55,22.28l1.52-3.91-.31-.12-1.52,3.91A1.66,1.66,0,0,1,25.55,22.28Z"/><path class="cls-2" d="M7.75,32.9l4.09-.35c0-.11,0-.22,0-.33l-4.09.35C7.73,32.69,7.74,32.79,7.75,32.9Z"/><path class="cls-2" d="M11.9,29.65l-4.05-.72c0,.11,0,.22,0,.32l4.06.72C11.87,29.87,11.88,29.76,11.9,29.65Z"/><path class="cls-2" d="M8.79,25.74l3.74,1.75.13-.3L8.92,25.44C8.88,25.54,8.83,25.63,8.79,25.74Z"/><path class="cls-2" d="M14,25l-3.17-2.67a2.56,2.56,0,0,0-.2.26l3.17,2.67A2.56,2.56,0,0,1,14,25Z"/><path class="cls-2" d="M15.46,23.61l.26-.2-2.47-3.35-.26.2Z"/><path class="cls-2" d="M17.56,22.32l-1.69-3.81-.3.14,1.69,3.81Z"/><path class="cls-2" d="M31.45,31.26l7.24-.32c0-.11,0-.22,0-.33l-7.24.32C31.45,31,31.45,31.15,31.45,31.26Z"/><path class="cls-2" d="M31.11,28.72,38,26.53l-.09-.32L31,28.4Z"/><path class="cls-2" d="M30.12,26.35l6.13-3.91-.18-.28-6.13,3.91Z"/><path class="cls-2" d="M33.45,19l-.24-.23L28.3,24.08l.24.23Z"/><path class="cls-2" d="M30,16.38l-.29-.16-3.42,6.42.29.16Z"/><path class="cls-2" d="M11.77,30.93l-7.18-.32c0,.11,0,.22,0,.33l7.18.32C11.76,31.15,11.77,31,11.77,30.93Z"/><path class="cls-2" d="M12.2,28.39,5.33,26.22l-.09.32,6.87,2.17Z"/><path class="cls-2" d="M13.28,26.05,7.2,22.17,7,22.45l6.09,3.88Z"/><path class="cls-2" d="M14.81,24.19l-5-5.25-.24.23,5,5.25Z"/><path class="cls-2" d="M12.68,16.73,16.33,23l.28-.17L13,16.56Z"/><path class="cls-2" d="M10,16.94l-.25-.21-.39.45a.41.41,0,0,0-.11.31.38.38,0,0,0,.13.29A1.11,1.11,0,0,0,9.8,18a2.39,2.39,0,0,0,.67,0l0-.15a1.56,1.56,0,0,1-.44-.06.84.84,0,0,1-.3-.15.31.31,0,0,1-.11-.22.28.28,0,0,1,.07-.23Z"/><path class="cls-2" d="M11.85,13.26a.34.34,0,0,1,.17,0,.29.29,0,0,1,.16,0l.59.25c.09-.05,0-.14-.26-.27l-.27-.13a1.12,1.12,0,0,0-.39-.1.67.67,0,0,0-.33.07.36.36,0,0,0-.11.1l.31.22A.28.28,0,0,1,11.85,13.26Z"/><path class="cls-2" d="M13.49,12.63l.15-.07a.87.87,0,0,1,.31-.05,1.71,1.71,0,0,1,.43.08l.21-.09L14.05,12a.48.48,0,0,0-.27-.16.39.39,0,0,0-.28,0,.63.63,0,0,0-.21.14l.32.22a.13.13,0,0,1,0-.07l.1-.06a.21.21,0,0,1,.17,0,.85.85,0,0,1,.21.14l.32.24,0,0a7.4,7.4,0,0,0-.72-.18.86.86,0,0,0-.4,0,.24.24,0,0,0-.11.06l-.06.06.29.25S13.45,12.66,13.49,12.63Z"/><path class="cls-2" d="M9.89,16.24h0l.07.05a.24.24,0,0,1,0,.25.64.64,0,0,1-.19.29,1.38,1.38,0,0,0,.65.23.6.6,0,0,0,.5-.15.5.5,0,0,0,.13-.19.72.72,0,0,0,.07-.25l.25.27.42-.09-1.15-1.21.52-.44.88,1.12.44,0-1-1.32.59-.44.27.42-.15.1a.07.07,0,0,0,0,.06.08.08,0,0,0,0,.08.56.56,0,0,0,.34.16.5.5,0,0,0,.38,0,.12.12,0,0,0,.06-.08A.13.13,0,0,0,13,15l-.54-.84.41-.27.81,1.25.42,0-.92-1.41c.42-.25.85-.49,1.29-.7l.23.46-.73.36a.14.14,0,0,0-.08.09.17.17,0,0,0,0,.12.56.56,0,0,0,.25.23.37.37,0,0,0,.29,0,.1.1,0,0,0,0,0,.06.06,0,0,0,0-.06L14.39,14a.17.17,0,0,1,0-.07,0,0,0,0,1,0-.05l.4-.2.29.58.42,0-.75-1.5c.46-.21.94-.41,1.42-.58l.2.54a1.32,1.32,0,0,0-.36-.15.47.47,0,0,0-.26,0,.56.56,0,0,0-.31.25.4.4,0,0,0,0,.37.63.63,0,0,0,.35.33.58.58,0,0,0,.47.06.44.44,0,0,0,.17-.12,1,1,0,0,0,.16-.22l.12.32.42.08L16.85,13a.57.57,0,0,1,.14-.24.43.43,0,0,1,.2-.14.16.16,0,0,1,.19.1.59.59,0,0,1,0,.27,1.94,1.94,0,0,1-.07.33l.38.1a1.06,1.06,0,0,0,0-.64.76.76,0,0,0-.3-.35.46.46,0,0,0-.4-.09l-.15.08a1.21,1.21,0,0,0-.16.16l-.16-.44c.36-.12.72-.23,1.09-.32l-.08-.07h0l-.23-.2a16.92,16.92,0,0,0-8.92,5.88l.38.1C9.12,17.06,9.5,16.64,9.89,16.24Zm6.37-3a.54.54,0,0,1-.22.15.17.17,0,0,1-.14,0,.2.2,0,0,1-.09-.09.26.26,0,0,1,0-.23.27.27,0,0,1,.17-.16.73.73,0,0,1,.22,0,.63.63,0,0,1,.25.07A1.82,1.82,0,0,1,16.26,13.22ZM10.45,15.7l.46.48a1.7,1.7,0,0,1-.08.37.56.56,0,0,1-.14.23.4.4,0,0,1-.18.1.3.3,0,0,1-.21,0v0a.87.87,0,0,0,.17-.33c0-.11,0-.19,0-.23a.38.38,0,0,0-.17-.1,1.37,1.37,0,0,0-.25-.05Z"/><path class="cls-2" d="M15.36,11.44a.43.43,0,0,1,.32,0l.52.38c.1,0,0-.14-.19-.32l-.24-.18a.87.87,0,0,0-.36-.18.62.62,0,0,0-.33,0,.5.5,0,0,0-.13.07l.26.28A.55.55,0,0,1,15.36,11.44Z"/><path class="cls-2" d="M22.48,13.27a.37.37,0,0,1,.23,0l.2,0L22.77,13l-.18,0a.53.53,0,0,0-.31.06.3.3,0,0,0-.15.22.59.59,0,0,0,.14.45.65.65,0,0,0,.42.24.84.84,0,0,0,.28,0,.82.82,0,0,0,.24-.1l-.13-.3a1.22,1.22,0,0,1-.28.14.66.66,0,0,1-.27,0,.17.17,0,0,1-.13-.08.2.2,0,0,1,0-.16A.22.22,0,0,1,22.48,13.27Z"/><path class="cls-2" d="M25.74,12.54a.27.27,0,0,1,.23,0l.37.1.08-.31-.57-.15a.42.42,0,0,0-.33,0,.36.36,0,0,0-.2.25,1,1,0,0,0,0,.5,2.42,2.42,0,0,0,.26.62l.14-.05a1.73,1.73,0,0,1-.14-.42,1,1,0,0,1,0-.34A.33.33,0,0,1,25.74,12.54Z"/><path class="cls-2" d="M32.82,15.6c-.13,0-.2.12-.24.32a1.34,1.34,0,0,0,.07.64.69.69,0,0,1-.45,0,.33.33,0,0,0,0-.14s0-.08,0-.1a.16.16,0,0,0-.14,0,.29.29,0,0,0-.16.09.18.18,0,0,0,0,.2.44.44,0,0,0,.14.22l-.12.57.2.06,0-.56a1.72,1.72,0,0,0,.66.05.76.76,0,0,0,.47-.2.7.7,0,0,0,0-1A.44.44,0,0,0,32.82,15.6Zm.33.52a.42.42,0,0,1-.11.22.58.58,0,0,1-.15.13.28.28,0,0,1-.12.05,1,1,0,0,1,0-.33.34.34,0,0,1,.07-.21.27.27,0,0,1,.15-.09.12.12,0,0,1,.13,0A.2.2,0,0,1,33.15,16.12Z"/><path class="cls-2" d="M32.32,18.28a.45.45,0,0,1-.29-.16,1.82,1.82,0,0,1-.32-.48,1,1,0,0,1-.1-.42h-.14a1.46,1.46,0,0,0,.08.58,2.06,2.06,0,0,0,.33.57.65.65,0,0,0,.37.23.38.38,0,0,0,.36-.09.54.54,0,0,0,.15-.35.53.53,0,0,0-.09-.37.31.31,0,0,0-.15-.1.51.51,0,0,0-.22-.05V18a.51.51,0,0,1,.18,0,.26.26,0,0,1,.13.07.18.18,0,0,1,0,.09.07.07,0,0,1,0,.08A.32.32,0,0,1,32.32,18.28Z"/><path class="cls-2" d="M19.31,12.82a.76.76,0,0,0,.54.16.4.4,0,0,0,.31-.18.48.48,0,0,0,.1-.36.75.75,0,0,0,0-.16.51.51,0,0,0-.09-.13,1.12,1.12,0,0,0,.22.11.35.35,0,0,0,.2,0,.27.27,0,0,0,.16-.06l.05.57.38.17L21,11.31h.76l0,.67h-.12a.09.09,0,0,0-.07,0,.16.16,0,0,0,0,.07.6.6,0,0,0,.19.31c.13.14.23.22.29.22a.05.05,0,0,0,.05,0,.16.16,0,0,0,0-.09v-.16l.61,0,0,.45.35.26.08-1.69c.51,0,1,.11,1.52.2l-.05.27L24,11.74a.53.53,0,0,0-.35.06.39.39,0,0,0-.18.26,1,1,0,0,0,.05.51,2,2,0,0,0,.28.58l.13-.06a1.18,1.18,0,0,1-.19-.37.94.94,0,0,1,0-.37.33.33,0,0,1,.13-.21.34.34,0,0,1,.24-.06l.36.06-.14.84.32.3.28-1.67a16.91,16.91,0,0,1,2.76.82l-.19.51a1,1,0,0,0-.2-.36.85.85,0,0,0-.28-.21.61.61,0,0,0-.42,0,.4.4,0,0,0-.27.25.65.65,0,0,0,.07.53.68.68,0,0,0,.37.39.75.75,0,0,0,.26,0,.63.63,0,0,0,.28-.08l-.11.3.26.36.59-1.58.68.31-.31.6-.11-.06s0,0-.08,0a.06.06,0,0,0-.06.05.63.63,0,0,0,0,.36c.06.19.11.29.17.32h.06l.07-.07.08-.14.54.28-.21.4.21.39.79-1.5.58.35-.79,1.22.17.4.93-1.42c.4.27.79.55,1.16.85l-.32.41-.64-.5a.14.14,0,0,0-.12,0,.2.2,0,0,0-.11.06.54.54,0,0,0-.1.33.37.37,0,0,0,.08.28,0,0,0,0,0,.06,0l.06,0,.09-.11.07,0a0,0,0,0,1,.06,0l.35.28-.4.51.16.39,1-1.33.45.39.25-.26a16.83,16.83,0,0,0-11.31-4.36,14.72,14.72,0,0,0-1.49.07l.22.34h.24l.05.48a.34.34,0,0,1-.12.12.3.3,0,0,1-.15.05h-.24a.31.31,0,0,1-.15,0,.52.52,0,0,0,.12-.17.35.35,0,0,0,0-.2.51.51,0,0,0-.26-.36.69.69,0,0,0-.48-.14.57.57,0,0,0-.24.08.91.91,0,0,0-.23.17l.21.25a1.12,1.12,0,0,1,.24-.19.67.67,0,0,1,.24-.08.27.27,0,0,1,.18,0,.22.22,0,0,1,.09.14.43.43,0,0,1,0,.23.17.17,0,0,1-.15.11.34.34,0,0,0-.17,0l-.21.09.17.29a1.14,1.14,0,0,0,.39-.18.22.22,0,0,1,.07.09.18.18,0,0,1,0,.11.34.34,0,0,1-.08.27.34.34,0,0,1-.25.13.57.57,0,0,1-.38-.11,1.31,1.31,0,0,1-.34-.36l-.11.09A1.47,1.47,0,0,0,19.31,12.82Zm7.78.46a.79.79,0,0,1-.35,0,.39.39,0,0,1-.17-.14.21.21,0,0,1,0-.17.34.34,0,0,1,.25-.18.64.64,0,0,1,.39,0,.44.44,0,0,1,.18.14,1,1,0,0,1,.14.24A1.66,1.66,0,0,1,27.09,13.28Zm2-.2.54.29-.32.61-.54-.28Zm-7-1.76.61,0,0,.68-.61,0Z"/><path class="cls-2" d="M32.72,17.65l.11.4L34,16.87l.26.3.1-.43c-.21-.24-.43-.47-.65-.7l-.25.25.29.31Z"/><rect class="cls-2" x="33.45" y="17.94" width="0.46" height="0.46"/><rect class="cls-2" x="33.97" y="17.43" width="0.46" height="0.46"/><path class="cls-2" d="M16.25,60.41l.6.34V57.93h.6l-.3-.54h-15l.34.54h.13v1.24l-.67-.3a.7.7,0,0,0,.15-.24.79.79,0,0,0,.05-.3,1,1,0,0,0-.34-.71,1,1,0,0,0-.67-.36.82.82,0,0,0-.55.19.61.61,0,0,0-.22.48.73.73,0,0,0,.21.47,1.65,1.65,0,0,0,.56.4A7.63,7.63,0,0,1,0,59.37l.47.4A6.22,6.22,0,0,0,1.71,59l.54.27-1.58,1,.44.37,1.48-1v.77l.6.34V57.92h3.6v.47H6.08a.82.82,0,0,0-.62.26.89.89,0,0,0-.26.62,1.41,1.41,0,0,0,.46.93,1.31,1.31,0,0,0,.88.48l.11,0,.09,0a1.71,1.71,0,0,1-.33.63.6.6,0,0,1-.44.24.26.26,0,0,1-.19-.08.24.24,0,0,1-.08-.19A.31.31,0,0,1,5.81,61a.77.77,0,0,1,.3-.15l-.54-.34a.51.51,0,0,0-.22.11.28.28,0,0,0-.11.16,1,1,0,0,1-.5-.1A.48.48,0,0,0,5,60.47a.56.56,0,0,0,.1-.33.52.52,0,0,0-.16-.4.49.49,0,0,0-.38-.17.67.67,0,0,0-.48.17.58.58,0,0,0-.19.44.73.73,0,0,0,.38.6,1.72,1.72,0,0,0,.93.24c0,.17,0,.34.26.5a1.33,1.33,0,0,0,.78.24.78.78,0,0,0,.5-.19,1.38,1.38,0,0,0,.38-.52l.27.57.37-.17-.5-.84a.37.37,0,0,0,.21-.15.43.43,0,0,0,.09-.26.66.66,0,0,0-.17-.4.46.46,0,0,0-.34-.2.54.54,0,0,0-.31.09.27.27,0,0,0-.13.24.56.56,0,0,0,.1.3.62.62,0,0,1-.3.1.65.65,0,0,1-.5-.22.79.79,0,0,1-.21-.55.67.67,0,0,1,.16-.45.46.46,0,0,1,.38-.19H7.39v-1h1v2.42l.6.4V57.91h2.76v.91a1.55,1.55,0,0,0-.52-.44,1.17,1.17,0,0,0-.56-.16,1,1,0,0,0-.66.22.7.7,0,0,0-.28.55,1.12,1.12,0,0,0,.41.78,1.2,1.2,0,0,0,.8.4,1.06,1.06,0,0,0,.42-.09,1,1,0,0,0,.38-.28v.54l.6.4V57.92h1v2.42l.6.4V57.92h2.3v.87H14.89a.26.26,0,0,0-.19.08.27.27,0,0,0-.08.19.85.85,0,0,0,.21.52.56.56,0,0,0,.4.28.1.1,0,0,0,.09,0,.11.11,0,0,0,0-.09v-.24a.16.16,0,0,1,.05-.11.09.09,0,0,1,.09-.05h.74v1.08Zm-14.71-2a.48.48,0,0,1-.21.23A.56.56,0,0,1,1,58.46a.5.5,0,0,1-.11-.32A.4.4,0,0,1,1,57.88a.41.41,0,0,1,.29-.11.27.27,0,0,1,.21.09.29.29,0,0,1,.09.21A1.06,1.06,0,0,1,1.54,58.44Zm2.76,2a.29.29,0,0,1-.09-.22A.27.27,0,0,1,4.3,60a.29.29,0,0,1,.21-.09.31.31,0,0,1,.22.09.29.29,0,0,1,.09.21.31.31,0,0,1-.31.31A.27.27,0,0,1,4.3,60.39Zm6.85-.82a1.4,1.4,0,0,1-.56.14.58.58,0,0,1-.34-.11.33.33,0,0,1-.13-.26.53.53,0,0,1,.28-.42,1.08,1.08,0,0,1,.62-.19.78.78,0,0,1,.36.11,1.22,1.22,0,0,1,.35.3A2.36,2.36,0,0,1,11.15,59.57Z"/><path class="cls-2" d="M16.87,61.12a.81.81,0,0,0-.46-.24.75.75,0,0,0-.26,0,.48.48,0,0,0-.21.13l.24.37a.53.53,0,0,1,.16-.09.38.38,0,0,1,.17,0c.15,0,.46.25.91.73l.36.38.2-.17Q17.59,61.8,16.87,61.12Z"/><path class="cls-2" d="M29.15,57.39H24.9l.34.54h.67v1.14H25v-1a.86.86,0,0,0-.31-.62.92.92,0,0,0-.63-.32.63.63,0,0,0-.45.17.59.59,0,0,0-.19.44.78.78,0,0,0,0,.16l-.3-.53h-3.9l.3.54H22v.44a.5.5,0,0,0-.27.11,1.87,1.87,0,0,0-.3.32,1.76,1.76,0,0,0-.39-.35.73.73,0,0,0-.38-.12.78.78,0,0,0-.57.24.76.76,0,0,0-.24.56,1.24,1.24,0,0,0,.3.74,3.63,3.63,0,0,0,.84.81l.17-.2a3.15,3.15,0,0,1-.54-.58,1,1,0,0,1-.19-.53.57.57,0,0,1,.13-.4.41.41,0,0,1,.32-.17.37.37,0,0,1,.21.06.6.6,0,0,1,.19.17c-.13.29-.21.47-.23.54l.54.24a1.85,1.85,0,0,1,.34-.75.62.62,0,0,1,.47-.29.41.41,0,0,1,.24.08.23.23,0,0,1,.09.19.77.77,0,0,1-.21.5,2.29,2.29,0,0,1-.6.54l.5.47a3.14,3.14,0,0,0,.5-.67,1.25,1.25,0,0,0,.17-.6,1.1,1.1,0,0,0-.14-.55.66.66,0,0,0-.36-.32V58h.84a.85.85,0,0,0,.26.43,1.32,1.32,0,0,0,.7.34v.37h-.2a.28.28,0,0,0-.16,0,.21.21,0,0,0-.07.15.83.83,0,0,0,.32.5.86.86,0,0,0,.52.3.19.19,0,0,0,.15-.08.29.29,0,0,0,.05-.19v-.2h.94v.81l.6.34V58h2.44v.47h-.87a.8.8,0,0,0-.55.19.61.61,0,0,0-.22.48,1.74,1.74,0,0,0,.22.82,3.31,3.31,0,0,0,.62.86l.2-.13a2,2,0,0,1-.4-.54,1.44,1.44,0,0,1-.13-.6.49.49,0,0,1,.16-.38.48.48,0,0,1,.38-.16H29v1.41l.6.4V58h.6l-.3-.54h-.7Zm-4.79,1.08a.44.44,0,0,1-.27-.2.62.62,0,0,1-.1-.37.53.53,0,0,1,.07-.26.19.19,0,0,1,.16-.11.09.09,0,0,1,.09.08.34.34,0,0,1,0,.19v.67Z"/><path class="cls-2" d="M29,56.79c-.14-.21-.24-.34-.29-.4a1.62,1.62,0,0,0-.48-.46,1,1,0,0,0-.52-.17,1.11,1.11,0,0,0-.24.05l.27.57a.87.87,0,0,1,.28-.05.67.67,0,0,1,.28.06.71.71,0,0,1,.22.15l.64.84C29.33,57.39,29.28,57.19,29,56.79Z"/><path class="cls-2" d="M42.37,60.35l.6.4V57.93h.6l-.3-.54H31.92l.3.54h2.31v.47H32.68l-.1.2a1.65,1.65,0,0,1,.69.38.83.83,0,0,1,.26.56.29.29,0,0,1-.12.23.66.66,0,0,1-.32.14.44.44,0,0,0-.34-.24.26.26,0,0,0-.21.09.36.36,0,0,0-.09.24.41.41,0,0,0,.21.35.82.82,0,0,0,.5.15l.4.91.3-.17-.54-.77a.9.9,0,0,0,.48-.23.53.53,0,0,0,.19-.41.91.91,0,0,0-.15-.49,1.29,1.29,0,0,0-.39-.42h1.07V60.4l.6.34V57.92h1v2.42l.6.4V57.92h2.3v.87H37.71a.26.26,0,0,0-.19.08.27.27,0,0,0-.08.19.85.85,0,0,0,.21.52.56.56,0,0,0,.4.28.1.1,0,0,0,.09,0,.11.11,0,0,0,0-.09v-.24a.16.16,0,0,1,.05-.11.09.09,0,0,1,.09-.05h.74V60.4l.6.34V57.92h1.08v1.14h-.2a.13.13,0,0,0-.11,0,.13.13,0,0,0,0,.11c0,.1.11.27.34.5s.39.34.5.34.06,0,.09-.05a.25.25,0,0,0,0-.15v-.27h1v.76Zm-1-1.28V57.93h1v1.14Z"/><path class="cls-2" d="M43,61.12a.81.81,0,0,0-.46-.24.75.75,0,0,0-.26,0,.48.48,0,0,0-.21.13l.23.37a.53.53,0,0,1,.16-.09.38.38,0,0,1,.17,0c.15,0,.46.25.91.73l.36.38.2-.17C43.84,61.94,43.47,61.57,43,61.12Z"/><path class="cls-2" d="M19.18,24.12h0a.7.7,0,0,0,0,.66,1.08,1.08,0,0,0,.61.49v0c0,.36.34.65.92.8a.84.84,0,0,0,.91.65l.27,0a.73.73,0,0,0,.56-.62c.58-.15.92-.44.92-.8a.41.41,0,0,0,0-.11c.4-.24.62-.53.61-.82a.45.45,0,0,0-.07-.23A4.06,4.06,0,0,0,25,22.4h0l0-.11a3.54,3.54,0,0,0,.08-.5,3.17,3.17,0,0,0-.18-1.37l-.16-.36a3,3,0,0,0-.5-.7l-.15-.15h0l-.2-.19-.16-.14c-.71-.64-1.22-1.11-1.06-2.22a2.64,2.64,0,0,0-.56-2.37l-.09,0c0-.16,0-.25-.05-.26a.56.56,0,0,0-.42-.29h-.09c-.21,0-.57.09-.73.68a5.79,5.79,0,0,0-.08,1.42v.28a5.48,5.48,0,0,1-1.44,2.65,7,7,0,0,0-.85,1.2A3,3,0,0,0,19.18,24.12Zm2.45,2.16c-.24,0-.44-.13-.44-.28a.14.14,0,0,1,0-.07l.21,0h.22l.42,0a.19.19,0,0,1,0,.07C22.07,26.15,21.87,26.28,21.63,26.28Zm.47-.6-.28,0h-.19a3.44,3.44,0,0,1-.46,0c-.56-.08-.9-.28-.9-.44a.08.08,0,0,1,0,0,6.06,6.06,0,0,0,1.2.11A5.45,5.45,0,0,0,23,25.15a.16.16,0,0,1,0,.1C23,25.4,22.66,25.61,22.1,25.68Zm-2.66-6.47,0,0a6.08,6.08,0,0,0,1.68-3.1v-.31a5.62,5.62,0,0,1,.07-1.29c.07-.29.19-.33.27-.33h0c.06,0,.09.08.1.23s0,.35,0,.63a8.94,8.94,0,0,0,0,1.82,7.39,7.39,0,0,0,.47,1.23,4,4,0,0,1,.48,1.48c0,.83-.37.89-.67.94-.13,0-.3.05-.3.21a.13.13,0,0,0,.14.13l.13,0a1.69,1.69,0,0,1,.39-.06.77.77,0,0,1,.27,0,.81.81,0,0,1,.53.49,1.18,1.18,0,0,1-.3,1.07,1,1,0,0,1-.64.31c-.12,0-.13.09-.12.13a.13.13,0,0,0,.14.11h.11a1.75,1.75,0,0,1,1.24.35.47.47,0,0,1,.14.35c0,.26-.37.36-.61.42s-.27.08-.28.19v.06l.08.08h.05l.14,0a1.9,1.9,0,0,1,.39-.07h.11c.08,0,.09.06.09.09s-.2.36-.67.56h0a3.89,3.89,0,0,1-1.28.16c-.85,0-1.85-.16-2-.51a.33.33,0,0,1,.05-.32.17.17,0,0,0,.08.06,3.91,3.91,0,0,0,1.72.34,3,3,0,0,0,.56,0c.11,0,.27-.06.26-.19s-.07-.12-.19-.12h-.42A4.54,4.54,0,0,1,20,24a4.89,4.89,0,0,1-1-.54,2.07,2.07,0,0,1-.69-1.66A4,4,0,0,1,19.44,19.21Z"/><path class="cls-2" d="M30.81,33.65l-.42-.11a9.07,9.07,0,0,0-5.94-10.89l.14-.41a9.52,9.52,0,0,1,6.22,11.41Z"/><path class="cls-2" d="M12.4,33.66a9.58,9.58,0,0,1-.3-2.38A9.48,9.48,0,0,1,18,22.46l.16.4a9,9,0,0,0-5.67,8.42,9.19,9.19,0,0,0,.29,2.28Z"/><path class="cls-2" d="M19.28,52.85a.24.24,0,0,0-.15.06.24.24,0,0,0-.07.16.29.29,0,0,0,.1.24.43.43,0,0,0,.27.13.33.33,0,0,0,.06-.1s0-.09,0-.15a.31.31,0,0,0-.06-.23A.29.29,0,0,0,19.28,52.85Z"/><path class="cls-2" d="M20.85,53.49a.58.58,0,0,0-.33.09.32.32,0,0,0-.15.24.2.2,0,0,0,.08.17.27.27,0,0,0,.2.07A.78.78,0,0,0,21,54a1.84,1.84,0,0,0,.36-.22,1,1,0,0,0-.24-.21A.59.59,0,0,0,20.85,53.49Z"/><rect class="cls-2" x="11.06" y="51.23" width="0.67" height="0.65" transform="translate(-41.11 46) rotate(-71.5)"/><path class="cls-2" d="M17.34,53.21a.49.49,0,0,0-.34.06.3.3,0,0,0-.17.23.21.21,0,0,0,.06.18.31.31,0,0,0,.19.09,1,1,0,0,0,.34,0,1.42,1.42,0,0,0,.38-.18,1.21,1.21,0,0,0-.21-.24A.6.6,0,0,0,17.34,53.21Z"/><rect class="cls-2" x="34.67" y="49.93" width="0.65" height="0.67" transform="translate(-17.51 18.74) rotate(-24.17)"/><path class="cls-2" d="M33,51.88a.21.21,0,0,0,0,.18.35.35,0,0,0,.21.2.5.5,0,0,0,.32,0,.72.72,0,0,0,.37-.29.4.4,0,0,0,.05-.38.24.24,0,0,0-.19-.14.56.56,0,0,0-.31,0,1.44,1.44,0,0,1-.24.21A.54.54,0,0,0,33,51.88Z"/><path class="cls-2" d="M30,51.73l.28,1a.12.12,0,0,0,.06.08.11.11,0,0,0,.1,0,.59.59,0,0,0,.28-.19.7.7,0,0,0,.15-.34l-.2-.7Z"/><path class="cls-2" d="M25.18,53.3a.56.56,0,0,0-.32.14.29.29,0,0,0-.11.26.21.21,0,0,0,.1.16.35.35,0,0,0,.2,0,.7.7,0,0,0,.32-.12,2.18,2.18,0,0,0,.33-.26,1.51,1.51,0,0,0-.26-.18A.42.42,0,0,0,25.18,53.3Z"/><path class="cls-2" d="M27.46,52.32l.1.51-.68.13a.2.2,0,0,0-.11.06.12.12,0,0,0,0,.12.23.23,0,0,0,.07.11.37.37,0,0,0,.14.07.56.56,0,0,1,.15-.1,1.3,1.3,0,0,1,.23-.07l.22.24-.21,0a.38.38,0,0,0-.19.09.18.18,0,0,0,0,.15.16.16,0,0,0,.09.11.32.32,0,0,0,.17,0,.86.86,0,0,0,.43-.23,1.1,1.1,0,0,0,.29-.46l-.17-.89Z"/><path class="cls-2" d="M42.13,48.66a10,10,0,0,1-.45-.93c.3-.22.59-.45.88-.71.93-.84.38-2-.07-2.86L42.4,44a2.33,2.33,0,0,1-.15-1.33,1.15,1.15,0,0,0-.17-1c-.21-.22-.59-.3-1.24-.27h0c-1.38.09-2.23,1.22-2.41,3.2l-.35.17a17.74,17.74,0,0,1-2.83.95h0l-.5.13h0a1.34,1.34,0,0,0-.33.14c-.54.35-.17,1.77,0,2.31-2.46,1.76-7.09,2.87-12.23,2.87H21c-5.14,0-9.77-1.1-12.23-2.87.17-.53.54-2,0-2.31a1.34,1.34,0,0,0-.33-.14h0L8,45.72H8a17.74,17.74,0,0,1-2.83-.95l-.35-.17c-.18-2-1-3.1-2.41-3.2h0c-.65,0-1,.05-1.24.27s-.2.6-.17,1A2.32,2.32,0,0,1,.8,44l-.09.18c-.44.9-1,2-.07,2.86a8.54,8.54,0,0,0,.88.71,10,10,0,0,1-.45.93,7.07,7.07,0,0,0-.69,1.67c0,.23-.18,2.09.2,2.22.07,0,.2,0,.31-.19.39-.79,1-1.61,1.46-1.64a.33.33,0,0,1,.3.19,3.9,3.9,0,0,1,.27.58c.12.3.17.43.33.4s.16-.2.16-.34A8,8,0,0,1,3.94,49c.63.24,1.26.42,1.88.59l0,0,0,0c-.18.2-.46.46-.46.46a.94.94,0,0,0-.26.71.87.87,0,0,0,.37.61c3.54,2.52,9.36,4,15.55,4h1.12c6.2,0,12-1.51,15.55-4a.82.82,0,0,0,.37-.61.91.91,0,0,0-.26-.71s-.27-.26-.46-.46l0,0,0,0c.62-.17,1.25-.36,1.88-.59a8,8,0,0,1,.53,2.55c0,.14,0,.31.16.34s.21-.11.33-.4a3.43,3.43,0,0,1,.27-.58c.12-.18.23-.19.3-.19.42,0,1.07.85,1.46,1.64.11.22.24.21.31.19.38-.14.26-2,.2-2.22A5.94,5.94,0,0,0,42.13,48.66Zm-39,2.48a2,2,0,0,0-.2-.39.63.63,0,0,0-.58-.33c-.63,0-1.31,1-1.66,1.68a6.9,6.9,0,0,1,0-1.7,7,7,0,0,1,.66-1.6c.15-.29.3-.59.43-.89a10.66,10.66,0,0,0,1.87,1A9.48,9.48,0,0,0,3.13,51.14ZM2,41.88s0-.18.35-.18c1.45.1,2,1.46,2.09,2.71C2.83,43.5,1.92,42.34,2,41.88Zm6.6,5.77c0,.11-.07.23-.09.34l-.08-.06c-.32-.26-.51-.43-.43-.65a.29.29,0,0,1,.32-.21l.22,0,.19,0m1.61,4.94a.59.59,0,0,1-.06-.43.09.09,0,0,1,.06,0,.14.14,0,0,1,.11,0l.18.06.21-.63-.35-.12v0l-.34-.14-.73,1.75-.23-.33.25-.6-.11,0h-.1l-.09-.06-.08-.12a.48.48,0,0,1,0,.18.47.47,0,0,1-.25.25.43.43,0,0,1-.35,0,.75.75,0,0,1-.38-.47A2.12,2.12,0,0,1,8,50.55l.12,0a1.26,1.26,0,0,0,.11.6.67.67,0,0,0,.33.35.4.4,0,0,0,.24,0,.28.28,0,0,0,.17-.15.32.32,0,0,0,0-.14.33.33,0,0,0,0-.14,1.55,1.55,0,0,1-.41,0l0-.36a.65.65,0,0,0,.41,0,.3.3,0,0,0,.25-.17.15.15,0,0,0,0-.13A.16.16,0,0,0,9,50.34a1.14,1.14,0,0,0-.32-.07.57.57,0,0,0-.29.07L8.34,50a.73.73,0,0,1,.3,0A1,1,0,0,1,9,50c.11,0,.2.17.28.37a.66.66,0,0,1,0,.46.28.28,0,0,1-.11.13A.53.53,0,0,1,9,51a.52.52,0,0,1,.07.22l.14.09a.35.35,0,0,0,.2,0,.46.46,0,0,0,.19-.08l.27-.64-.28-.12-.1-.32.95.4,1.94.65h0l1.92.51.12.3L14.08,52l-.49,1.83-.28-.3.25-1-.64-.17a.17.17,0,0,0-.15,0,.42.42,0,0,0-.11.18.75.75,0,0,0,0,.42,1.12,1.12,0,0,0,.2.43l-.15.07a3.4,3.4,0,0,1-.3-.67.92.92,0,0,1-.05-.47.51.51,0,0,1,.19-.28.33.33,0,0,1,.3-.06l.79.21.1-.37-1.26-.33h0l-.05,0h0l-.27-.09-.53,1.6h0l.1.28-.31-.09a.25.25,0,0,0-.22,0,.34.34,0,0,0-.14.21.18.18,0,0,0,0,.16.24.24,0,0,0,.13.11.74.74,0,0,0,.26,0,.76.76,0,0,0,.28-.09l.12.3a.61.61,0,0,1-.28,0,.89.89,0,0,1-.32,0,.49.49,0,0,1-.28-.31.69.69,0,0,1,0-.46.32.32,0,0,1,.19-.22.41.41,0,0,1,.19,0l0,0,.23-.67L10.92,52l-.07.2a.2.2,0,0,1-.07.1.15.15,0,0,1-.11,0m11,.52,0,1.89-.34-.22v-.43a.76.76,0,0,1-.26.15.65.65,0,0,1-.26.06.72.72,0,0,1-.48-.23.63.63,0,0,1-.24-.45.43.43,0,0,1,.16-.32.59.59,0,0,1,.39-.13.68.68,0,0,1,.38.12.91.91,0,0,1,.32.3v-.75l-1.4,0h0l-.45,0a.8.8,0,0,1,.23.29.72.72,0,0,1,.07.34.84.84,0,0,1-.16.41,1.22,1.22,0,0,1-.39.31l.41.55-.18.14-.36-.63-.06,0H19a.39.39,0,0,1-.23-.13.38.38,0,0,1-.11-.25.16.16,0,0,1,.06-.13.18.18,0,0,1,.12,0,.26.26,0,0,1,.15.06.49.49,0,0,1,.12.13.51.51,0,0,0,.18-.11.58.58,0,0,0,.15-.19.93.93,0,0,1-.5-.23.42.42,0,0,1-.17-.38.26.26,0,0,1,0-.11.32.32,0,0,1,.08-.09l-.22,0h0l-.36-.05L18,54.57l-.31-.26.06-.43a.77.77,0,0,1-.28.12.6.6,0,0,1-.26,0,.74.74,0,0,1-.45-.28.64.64,0,0,1-.19-.47.45.45,0,0,1,.19-.3.61.61,0,0,1,.4-.08.81.81,0,0,1,.37.16,1.07,1.07,0,0,1,.29.34l.1-.75-1.39-.18v0l-.25,0L16,54.28l-.3-.27L16,52.36l-.34-.06L15.48,52l.64.11c0-.1-.06-.18-.07-.24a.47.47,0,0,1,0-.16.57.57,0,0,1,.28-.41.7.7,0,0,1,.51-.1.93.93,0,0,1,.47.33,3.5,3.5,0,0,1,.49.78l-.1,0a2,2,0,0,0-.37-.58.79.79,0,0,0-.44-.26.48.48,0,0,0-.4.09.51.51,0,0,0-.22.33,1,1,0,0,0,0,.22l.28,0v0l2,.26h0l1.43.11v0l2,0,.19.26Zm12.95-5.8.22,0a.29.29,0,0,1,.32.21c.08.22-.11.39-.43.65l-.08.06-.09-.34a2.55,2.55,0,0,1-.13-.55A.62.62,0,0,0,34.66,47.08Zm.41,4.09a.18.18,0,0,1,0,.12.13.13,0,0,1-.07.09.59.59,0,0,1-.42,0,.62.62,0,0,1-.34-.28s0,0,0-.07a.16.16,0,0,1,.09-.07l.18-.08-.27-.61-.33.15h0l-.07,0h0l-.6.23a.72.72,0,0,1,.21.16.38.38,0,0,1,.12.17.25.25,0,0,1,0,.17.65.65,0,0,1-.09.19.85.85,0,0,1,.48,0,.49.49,0,0,1,.29.27.57.57,0,0,1,0,.49.87.87,0,0,1-.45.37.72.72,0,0,1-.62-.09.89.89,0,0,1-.47-.47.34.34,0,0,1,0-.29.67.67,0,0,1,.28-.27.69.69,0,0,0,.23-.22.28.28,0,0,0,0-.23.47.47,0,0,0-.08-.14.28.28,0,0,0-.1-.09l-.92.35h0l-.25.09.61,1.79-.4-.09-.54-1.59-.24.08h0l-.35.1.53,1.82-.39-.11L31,52.71a.31.31,0,0,1-.1.13.55.55,0,0,1-.15.08.74.74,0,0,1-.52-.05.51.51,0,0,1-.34-.29l-.22-.74-.21.06h0l-.26.06.45,1.84-.39-.13L28.85,52l-.25.06,0,0-.36.07L28.61,54l-.38-.15-.06-.3a.69.69,0,0,1-.24.24,1.18,1.18,0,0,1-.37.14.77.77,0,0,1-.48-.08c-.17-.09-.27-.19-.29-.3a.34.34,0,0,1,0-.09.27.27,0,0,1,.06-.1.63.63,0,0,1-.28-.15.36.36,0,0,1-.14-.21.24.24,0,0,1,.06-.23.36.36,0,0,1,.22-.13l.42-.08,0-.21-.9.17h0l-.26,0,.22,1.88-.37-.17-.05-.43a.69.69,0,0,1-.24.18.63.63,0,0,1-.25.09.73.73,0,0,1-.51-.17.65.65,0,0,1-.3-.41.39.39,0,0,1,.12-.33.62.62,0,0,1,.36-.18.68.68,0,0,1,.39.07,1.1,1.1,0,0,1,.36.26l-.09-.75-1.39.16h0l-.26,0L24,54.68l-.36-.19-.12-1.68-.34,0L23,52.59l.64,0a2,2,0,0,1-.13-.22.41.41,0,0,1-.05-.16.6.6,0,0,1,.17-.47.65.65,0,0,1,.47-.22.88.88,0,0,1,.54.21,3.58,3.58,0,0,1,.67.64l-.08.07a1.84,1.84,0,0,0-.5-.47.84.84,0,0,0-.49-.15.53.53,0,0,0-.37.18.46.46,0,0,0-.13.37.7.7,0,0,0,0,.21l.28,0,0,0,2-.23h0l2.18-.41h0l1-.25h0L31,51.19,31.6,51a1.14,1.14,0,0,0-.4-.39.53.53,0,0,0-.42-.06.32.32,0,0,0-.2.18.41.41,0,0,0,0,.29.48.48,0,0,0,.2.23l-.12,0a.79.79,0,0,1-.2-.17.94.94,0,0,1-.13-.24.53.53,0,0,1,0-.39.48.48,0,0,1,.28-.26.61.61,0,0,1,.56.12,1.74,1.74,0,0,1,.53.6l.24-.08h0l1.69-.64h0l1.86-.83.28.16-.33.15.78,1.73-.4-.06-.29-.65L35,51Zm1.89.65-.59-.19-.13,0h-.08l-.07,0a.48.48,0,0,0-.08.12l-.21-.13.11-.13.08-.06.08,0h.08l.86.24Zm1.79-7.41c.15-1.25.64-2.61,2.09-2.71.32,0,.34.13.35.18C41.3,42.34,40.38,43.5,38.75,44.41Zm3.77,7.69c-.35-.66-1-1.64-1.66-1.68a.63.63,0,0,0-.58.33,2.84,2.84,0,0,0-.2.39,9.24,9.24,0,0,0-.53-2.25,10.32,10.32,0,0,0,1.87-1c.13.31.28.6.43.89a7,7,0,0,1,.66,1.6A6,6,0,0,1,42.52,52.1Z"/><rect class="cls-1" x="259.06" y="6.09" width="1.45" height="53.76"/></g></g></svg>