<svg xmlns="http://www.w3.org/2000/svg" viewBox="0 0 1033.75 220.7"><defs><style>.cls-1{fill:#fff;}.cls-2{fill:#f1511b;}.cls-3{fill:#80cc28;}.cls-4{fill:#00adef;}.cls-5{fill:#fbbc09;}</style></defs><title>Asset 1</title><g id="Layer_2" data-name="Layer 2"><g id="Layer_1-2" data-name="Layer 1"><path class="cls-1" d="M1033.75,99.84V81.66h-22.58V53.4l-.76.23L989.2,60.12l-.41.12V81.66H955.32V69.73c0-5.56,1.24-9.81,3.69-12.64s5.91-4.23,10.34-4.23a24.09,24.09,0,0,1,9.81,2.23l.83.38V36.32l-.39-.14a38.06,38.06,0,0,0-12.54-1.68,36.75,36.75,0,0,0-17.78,4.27,30.5,30.5,0,0,0-12.21,12.07,36,36,0,0,0-4.32,17.7V81.66H917V99.84h15.72v76.59h22.57V99.84h33.47v48.67c0,20,9.45,30.2,28.1,30.2a46.29,46.29,0,0,0,9.58-1.06,26.4,26.4,0,0,0,7-2.21l.3-.18V156.91l-.92.61a15.86,15.86,0,0,1-4.54,2,17.53,17.53,0,0,1-4.46.76c-4.37,0-7.6-1.18-9.6-3.5s-3.06-6.45-3.06-12.18V99.84ZM866.64,160.26c-8.2,0-14.65-2.72-19.21-8.07s-6.89-13-6.89-22.78c0-10,2.32-17.91,6.9-23.39s10.95-8.19,19-8.19c7.83,0,14.06,2.63,18.52,7.84s6.76,13,6.76,23.19-2.14,18.2-6.36,23.49-10.5,7.91-18.73,7.91m1-80.89C852,79.37,839.6,84,830.75,93s-13.33,21.54-13.33,37.16c0,14.84,4.38,26.77,13,35.47s20.39,13.1,34.92,13.1c15.15,0,27.32-4.64,36.16-13.8s13.33-21.53,13.33-36.78c0-15.07-4.21-27.1-12.5-35.73s-20-13-34.7-13m-86.6,0c-10.63,0-19.43,2.71-26.14,8.08a25.76,25.76,0,0,0-10.19,21,29.32,29.32,0,0,0,2.2,11.75,23.47,23.47,0,0,0,6.74,8.81c3,2.47,7.6,5.05,13.72,7.68A101.94,101.94,0,0,1,778.78,142a15.92,15.92,0,0,1,5,4.12,9.27,9.27,0,0,1,1.4,5.38c0,6.36-4.77,9.46-14.58,9.46a40.05,40.05,0,0,1-12.34-2.26,46,46,0,0,1-12.63-6.4l-.94-.68v21.73l.34.16a55.76,55.76,0,0,0,12,3.7,64,64,0,0,0,12.77,1.47c11.54,0,20.83-2.73,27.61-8.12a26.28,26.28,0,0,0,10.27-21.53,24.75,24.75,0,0,0-5.53-16.28c-3.64-4.38-10-8.4-18.78-12-7-2.82-11.53-5.16-13.38-7a9.73,9.73,0,0,1-2.7-7.3,8.14,8.14,0,0,1,3.42-6.75c2.32-1.8,5.55-2.71,9.61-2.71a39.12,39.12,0,0,1,11.43,1.76,36.51,36.51,0,0,1,10,4.63l.92.63V83.51l-.35-.16a50,50,0,0,0-10.14-2.82A61.37,61.37,0,0,0,781,79.38m-95.16,80.88c-8.19,0-14.65-2.72-19.2-8.07s-6.9-13-6.9-22.78c0-10,2.32-17.91,6.91-23.38s10.94-8.2,19-8.2c7.82,0,14,2.64,18.51,7.84s6.76,13,6.76,23.19-2.14,18.2-6.36,23.49-10.49,7.91-18.73,7.91m1-80.88c-15.64,0-28,4.57-36.89,13.61s-13.33,21.53-13.33,37.15c0,14.84,4.38,26.77,13,35.47s20.38,13.1,34.92,13.1c15.15,0,27.31-4.64,36.16-13.8s13.33-21.53,13.33-36.78c0-15.07-4.21-27.1-12.51-35.73s-20-13-34.69-13M602.41,98.07V81.66H580.12v94.76h22.29V128c0-8.25,1.87-15,5.56-20.13s8.49-7.62,14.41-7.62a26,26,0,0,1,6.71,1,17,17,0,0,1,5.19,2.1l.94.68V81.5l-.36-.16A23.12,23.12,0,0,0,626.13,80a22.83,22.83,0,0,0-14.91,5.35c-3.77,3.11-6.49,7.38-8.57,12.71ZM540.2,79.38c-10.23,0-19.35,2.19-27.11,6.51a43.85,43.85,0,0,0-17.88,18.39c-4.07,7.84-6.14,17-6.14,27.23a50.16,50.16,0,0,0,6,24.41,41.87,41.87,0,0,0,16.68,16.87,49.65,49.65,0,0,0,24.37,5.92c10.59,0,19.64-2.11,26.89-6.29l.29-.17V151.83l-.93.68a42.23,42.23,0,0,1-10.91,5.68,32.81,32.81,0,0,1-10.68,2.07c-8.75,0-15.77-2.74-20.87-8.13s-7.7-13-7.7-22.54,2.7-17.39,8-23.13,12.34-8.63,20.9-8.63c7.33,0,14.47,2.48,21.23,7.38l.93.68V84.37l-.3-.17a36.85,36.85,0,0,0-10.31-3.49,61.55,61.55,0,0,0-12.46-1.33m-66.49,2.28H451.42v94.77h22.29ZM462.8,41.29A13.45,13.45,0,0,0,453.3,45a12.29,12.29,0,0,0-4,9.3,11.91,11.91,0,0,0,3.94,9.11,13.58,13.58,0,0,0,9.54,3.63,13.76,13.76,0,0,0,9.58-3.62,11.89,11.89,0,0,0,4-9.12,12.56,12.56,0,0,0-3.88-9.2,13.28,13.28,0,0,0-9.69-3.82M407.18,74.67V176.43h22.75V44.19H398.44l-40,98.22L319.58,44.19H286.81V176.42h21.38V74.66h.73l41,101.76h16.13L406.44,74.67Z"/><path class="cls-2" d="M104.87,104.87H0V0H104.87Z"/><path class="cls-3" d="M220.65,104.87H115.79V0H220.65V104.87Z"/><path class="cls-4" d="M104.86,220.7H0V115.83H104.86Z"/><path class="cls-5" d="M220.65,220.7H115.79V115.83H220.65V220.7Z"/></g></g></svg>